PathFileType	3	(X/Y/Z)	D:\Jess\Healthy\Labelled\HA13\20250417\SRRun01.trc
DataRate	CameraRate	NumFrames	NumMarkers	Units	OrigDataRate	OrigDataStartFrame	OrigNumFrames
250.0	250.0	4	37	mm	250.0	37188	2501
Frame#	Time	C7			T10			CLAV			LSHO			RSHO			LASIS			RASIS			LPSIS			RPSIS			LILCR			RILCR			LGTR			LTHI			LLTHI			LLEP			LMEP			LPSH			LLSH			LDSH			LLMAL			LMMAL			LTOE			L5TH			LHEE			RGTR			RTHI			RLTHI			RLEP			RMEP			RPSH			RLSH			RDSH			RLMAL			RMMAL			RTOE			R5TH			RHEE			
		X1	Y1	Z1	X2	Y2	Z2	X3	Y3	Z3	X4	Y4	Z4	X5	Y5	Z5	X6	Y6	Z6	X7	Y7	Z7	X8	Y8	Z8	X9	Y9	Z9	X10	Y10	Z10	X11	Y11	Z11	X12	Y12	Z12	X13	Y13	Z13	X14	Y14	Z14	X15	Y15	Z15	X16	Y16	Z16	X17	Y17	Z17	X18	Y18	Z18	X19	Y19	Z19	X20	Y20	Z20	X21	Y21	Z21	X22	Y22	Z22	X23	Y23	Z23	X24	Y24	Z24	X25	Y25	Z25	X26	Y26	Z26	X27	Y27	Z27	X28	Y28	Z28	X29	Y29	Z29	X30	Y30	Z30	X31	Y31	Z31	X32	Y32	Z32	X33	Y33	Z33	X34	Y34	Z34	X35	Y35	Z35	X36	Y36	Z36	X37	Y37	Z37	

2189	148.748	919.3387104572643	1554.430824475156	-305.4173974845683	838.680588578466	1301.690713547863	-327.1057685263624	1070.888529300035	1436.298824438108	-288.5354333275098	998.6235249520953	1530.252374466253	-457.1970475239658	955.0648659735373	1520.278764816731	-151.1898364653579	1021.345870639639	1007.553442981048	-409.8302869998544	996.5339205096291	1031.163758931694	-199.7698566605061	830.4256709853655	1050.376253627225	-344.348980709294	823.7389333583818	1048.317498015618	-300.6453449225405	971.2581192611174	1072.991054437281	-474.4521096619518	934.703193955899	1081.518096558278	-149.2248897089056	989.8266805684198	831.3723919057056	-472.3944372216454	1072.367533252159	729.7580792172215	-413.5239047291393	984.7205465098833	634.5364231190246	-463.5784095982699	988.4996553298287	516.3676539599181	-446.9379203871997	nan	nan	nan	930.0527637551883	414.4620417134043	-412.0868100629951	784.1089049193117	467.2452051817369	-459.1044692925814	701.7630403510999	379.3389328030138	-417.9727726675219	598.0223184602004	407.7705823106525	-441.324343509906	nan	nan	nan	556.2564107620468	250.337128025039	-451.9460688895201	517.5931818327638	288.4822665739116	-480.6544091081272	545.7587292812372	456.811459893455	-373.2534302693864	973.7060577593126	867.7143704577099	-129.1533626174929	1086.788224679067	780.1721905062617	-207.3480401444172	990.8516153159685	656.0810352255538	-162.9790727888303	1030.276056433144	506.2617025412095	-188.5267025151792	nan	nan	nan	1075.703320814886	419.1194304037587	-248.6395588353168	980.6011010923385	318.2528902252687	-201.0587366144243	997.2788495735196	178.8356793379898	-287.1204932752247	935.3557844794761	111.3187242546815	-262.44880681392	nan	nan	nan	1079.525729859044	61.50310903863826	-273.2832910003023	1025.615858703235	40.31627499171002	-236.2982791177505	856.9289291807626	81.68764338292704	-316.1069290557839	
2190	148.752	919.1006264184057	1552.75875739165	-304.8948286055621	838.1261807476958	1300.102164749447	-327.1658790126449	1070.971750812782	1433.473520043031	-288.9744183942523	997.7848694782343	1528.121801672563	-457.4101021063464	955.6042300105159	1518.074953713611	-150.4703527640407	1020.325262550801	1004.410259123587	-409.8303403160668	995.4692739763121	1028.961184049608	-199.8078012097783	829.4060931953467	1048.376499967006	-344.8255978093021	822.7552854816071	1046.58620425142	-301.1688016234442	970.0346478985703	1068.955641192977	-475.0493699859074	933.3368754593836	1078.618368455648	-149.0518702299769	991.109459519434	829.5279967468972	-472.7818924466688	1075.584374186419	729.2665120187962	-414.6055602903759	989.44562913579	633.2041580611647	-464.0763621212035	996.3360034073503	515.7097502332879	-447.5505147551804	nan	nan	nan	938.811465863375	414.2283988753305	-412.6329932635462	793.0286745944389	467.1696019140863	-459.8805027926257	710.5520665073786	379.2278958400615	-418.6187315390441	606.8604358072604	407.6983107839866	-442.0963490262359	nan	nan	nan	566.3923105497291	250.1180403075502	-453.2774095278928	527.7938641728603	288.0798279252913	-482.3376966212383	553.5120105803832	456.3214149254597	-374.2755827019041	971.1787412213416	865.7765522006151	-129.0710152607944	1084.296634880262	776.9092639609196	-206.6829744068226	987.1129799600935	654.2539569262427	-163.2295537159465	1025.93471371334	504.3865281092297	-188.9075908274386	nan	nan	nan	1069.703313980162	416.7060724360141	-249.3778719032173	973.1494528616612	317.3552521442726	-201.4339529374489	986.6732370688492	177.786049147602	-287.6659750441078	923.778814026227	111.3829860420012	-262.7781773734006	nan	nan	nan	1067.344082315953	61.43987082375368	-273.4087007837049	1013.400957918993	40.56222541264691	-236.3188968815774	844.8135150312046	81.88624354528142	-316.2992470108181	
2191	148.756	918.8936911033951	1551.30883973487	-304.4010496576068	837.5707326602868	1298.778039451912	-327.2088256016747	1071.010654110788	1430.972371151275	-289.3941516915012	996.99431274916	1526.249316874816	-457.6074436432884	956.2394275284839	1516.130760276676	-149.7962614786497	1019.297676669615	1001.585003389254	-409.8456027188469	994.3947222967807	1026.971105274468	-199.8791354513768	828.4042006808434	1046.736656843673	-345.3180218224831	821.794448647291	1045.198261331038	-301.7060798881993	968.767919860538	1065.320096321055	-475.6275641528313	931.8955307559174	1076.049529824267	-148.9330612105285	992.2902625476823	828.053346067676	-473.2030026956676	1078.738739716846	729.2585995218454	-415.6343336444881	994.1696286534759	632.2896444477414	-464.5398153439773	1004.172169481613	515.4888392648918	-448.057856150463	nan	nan	nan	947.6695226376203	414.2967502736032	-413.0946138454814	801.9698805983968	467.1952614692102	-460.561781167212	719.4955755199763	378.9961571504095	-419.2179418419012	615.7984038133884	407.2912455847244	-442.8483439214751	nan	nan	nan	576.9000981517604	249.4970891842292	-454.5149873743564	538.3045812032334	287.1913908238498	-483.9452089411835	561.2692074190692	455.420148752034	-375.3164839993505	968.5420269560993	864.0686038456605	-128.9871664567985	1081.560463567032	773.9280635349663	-206.2002314140662	983.3082254051739	652.5899631739433	-163.369253241363	1021.300651292392	502.6252547768613	-189.1727013484505	nan	nan	nan	1063.420658459927	414.4128253889579	-249.9024818109456	965.4670466638636	316.5482687257473	-201.6404966183181	975.9808895808753	176.8835145460903	-287.9646928847031	912.1555802962085	111.5244082044371	-262.9027693213486	nan	nan	nan	1055.156692189738	61.38917225225681	-273.3985125796162	1001.178849992187	40.74264089581529	-236.2590115100336	832.7072796131753	82.15040885657491	-316.3314302389504	
2192	148.76	918.7122144318977	1550.081824821306	-303.9383501439511	837.0195066734943	1297.71259980564	-327.228190306274	1071.00566853062	1428.812811381712	-289.7926253759043	996.2481101953113	1524.648612966608	-457.7863076609357	956.9752537606374	1514.460879997996	-149.1786819846835	1018.28058042661	999.1199626997405	-409.8781084949494	993.3245252476557	1025.209355480136	-199.9741071837201	827.4313581158613	1045.451682978827	-345.8240873421121	820.868330528833	1044.141191660965	-302.2539307869854	967.479123549274	1062.150372299167	-476.1779544275121	930.3910191722609	1073.837010999555	-148.8700312264581	993.3656794734653	826.9609581984352	-473.6578883119679	1081.816361616568	729.7541072109179	-416.590295371777	998.8909128019053	631.8026162524621	-464.9663719129008	1011.990340365277	515.7105171361871	-448.4583000870037	nan	nan	nan	956.6043439513733	414.6700480344576	-413.4729640295188	810.9086826986826	467.3187146926436	-461.1438097534786	728.5741036218805	378.6428828154506	-419.7749293032057	624.8155113372806	406.5493105428661	-443.5774417960953	nan	nan	nan	587.7439837855927	248.4819916145037	-455.6636235460708	549.086028725641	285.8289997063649	-485.4690870177934	569.031181334847	454.1019680669814	-376.3608861886777	965.8310579648462	862.5948042385834	-128.9138627443122	1078.597172981783	771.2505778103833	-205.9126289982994	979.4323462905954	651.0888738437068	-163.4070997947632	1016.353956662059	500.9650807462513	-189.3289392218417	nan	nan	nan	1056.847752126163	412.2242170613353	-250.2216631189447	957.5472032272319	315.8131615625169	-201.6945425332656	965.1993508231907	176.1069308731545	-288.0417939448669	900.4821146708274	111.724543891792	-262.8454225604218	nan	nan	nan	1042.960911030174	61.33676589554565	-273.2697891212043	988.9447662844236	40.85226300576396	-236.1261271780087	820.6059037564191	82.46368689062209	-316.2244704018343	
